<svg width="491" height="487" viewBox="0 0 491 487" fill="none" xmlns="http://www.w3.org/2000/svg">
<circle cx="244" cy="457" r="30" fill="white"/>
<circle cx="397" cy="394" r="30" fill="white"/>
<circle cx="461" cy="242" r="30" fill="white"/>
<circle cx="396" cy="90" r="30" fill="white"/>
<circle cx="245" cy="30" r="30" fill="white"/>
<circle cx="94" cy="90" r="30" fill="white"/>
<circle cx="30" cy="243" r="30" fill="white"/>
<circle cx="93" cy="393" r="30" fill="white"/>
<path d="M183 216L217.5 180H270.5L306.5 216.5L308 268L272.5 303.5H215.5L183 268V216Z" fill="white"/>
<path d="M236.5 127H254.5C254.5 127 257 142 259 149.5C261 157 267.5 174 267.5 174H222.5C222.5 174 231 153.5 232 149.5C233 145.5 236.5 127 236.5 127Z" fill="white"/>
<path d="M362 233L362 251C362 251 347 253.5 339.5 255.5C332 257.5 315 264 315 264L315 219C315 219 335.5 227.5 339.5 228.5C343.5 229.5 362 233 362 233Z" fill="white"/>
<path d="M333.154 319.134L320.426 331.861C320.426 331.861 308.052 323.023 301.335 319.134C294.617 315.244 278 307.82 278 307.82L309.82 276C309.82 276 318.305 296.506 320.426 300.042C322.548 303.577 333.154 319.134 333.154 319.134Z" fill="white"/>
<path d="M254 359L236 359C236 359 233.5 344 231.5 336.5C229.5 329 223 312 223 312L268 312C268 312 259.5 332.5 258.5 336.5C257.5 340.5 254 359 254 359Z" fill="white"/>
<path d="M167.92 331.154L155.192 318.426C155.192 318.426 164.031 306.052 167.92 299.335C171.809 292.617 179.234 276 179.234 276L211.054 307.82C211.054 307.82 190.548 316.305 187.012 318.426C183.477 320.548 167.92 331.154 167.92 331.154Z" fill="white"/>
<path d="M129 251L129 233C129 233 144 230.5 151.5 228.5C159 226.5 176 220 176 220L176 265C176 265 155.5 256.5 151.5 255.5C147.5 254.5 129 251 129 251Z" fill="white"/>
<path d="M155.899 165.92L168.627 153.192C168.627 153.192 181.002 162.031 187.719 165.92C194.437 169.809 211.054 177.234 211.054 177.234L179.234 209.054C179.234 209.054 170.749 188.548 168.627 185.012C166.506 181.477 155.899 165.92 155.899 165.92Z" fill="white"/>
<path d="M321.134 153.899L333.861 166.627C333.861 166.627 325.023 179.002 321.134 185.719C317.244 192.437 309.82 209.054 309.82 209.054L278 177.234C278 177.234 298.506 168.749 302.042 166.627C305.577 164.506 321.134 153.899 321.134 153.899Z" fill="white"/>
<path d="M191.5 116.5C204.823 121.272 212.195 123.595 225 126.5C224.392 143.356 222.206 152.482 214 168C198.469 163.026 189.817 158.738 174.5 148C184.942 132.167 188.676 125.26 191.5 116.5Z" fill="white"/>
<path d="M296.437 117.021C302.483 129.816 306.054 136.671 313.054 147.78C300.705 159.269 292.707 164.176 275.931 169.347C268.465 154.847 265.379 145.698 262.142 127.274C280.722 123.462 288.245 121.218 296.437 117.021Z" fill="white"/>
<path d="M371.5 190C366.728 203.323 364.405 210.695 361.5 223.5C344.644 222.892 335.518 220.706 320 212.5C324.974 196.969 329.262 188.317 340 173C355.833 183.442 362.74 187.176 371.5 190Z" fill="white"/>
<path d="M371.104 294.437C358.309 300.483 351.454 304.054 340.345 311.054C328.856 298.705 323.949 290.707 318.778 273.931C333.277 266.465 342.427 263.379 360.851 260.142C364.663 278.722 366.907 286.245 371.104 294.437Z" fill="white"/>
<path d="M297.5 369.5C284.177 364.728 276.805 362.405 264 359.5C264.608 342.644 266.794 333.518 275 318C290.531 322.974 299.183 327.262 314.5 338C304.058 353.833 300.324 360.74 297.5 369.5Z" fill="white"/>
<path d="M192.688 369.104C186.641 356.309 183.071 349.454 176.071 338.345C188.42 326.856 196.418 321.949 213.194 316.778C220.66 331.277 223.746 340.427 226.983 358.851C208.403 362.663 200.88 364.907 192.688 369.104Z" fill="white"/>
<path d="M120 296.5C124.772 283.177 127.095 275.805 130 263C146.856 263.608 155.982 265.794 171.5 274C166.526 289.531 162.238 298.183 151.5 313.5C135.667 303.058 128.76 299.324 120 296.5Z" fill="white"/>
<path d="M119.021 190.688C131.816 184.641 138.671 181.071 149.78 174.071C161.269 186.42 166.176 194.418 171.347 211.194C156.847 218.66 147.698 221.746 129.274 224.983C125.462 206.403 123.218 198.88 119.021 190.688Z" fill="white"/>
<path d="M62 131C104.252 135.447 122.465 144.985 142.5 165.5C133.007 173.379 126.741 176.601 114.5 181C98.4916 162.369 85.5772 149.852 62 131Z" fill="white"/>
<path d="M194.355 35C221.087 68.0209 227.221 87.6442 226.882 116.317C214.598 115.176 207.889 113.023 196.123 107.478C197.977 82.9849 197.696 65.0022 194.355 35Z" fill="white"/>
<path d="M356 61C351.553 103.252 342.015 121.465 321.5 141.5C313.621 132.007 310.399 125.741 306 113.5C324.631 97.4916 337.148 84.5772 356 61Z" fill="white"/>
<path d="M453.277 192.355C420.257 219.087 400.633 225.221 371.96 224.882C373.102 212.598 375.254 205.889 380.799 194.123C405.293 195.977 423.275 195.696 453.277 192.355Z" fill="white"/>
<path d="M427.5 354C385.248 349.553 367.035 340.015 347 319.5C356.493 311.621 362.759 308.399 375 304C391.008 322.631 403.923 335.148 427.5 354Z" fill="white"/>
<path d="M295.922 451.277C269.19 418.257 263.056 398.633 263.395 369.96C275.679 371.102 282.388 373.254 294.154 378.799C292.3 403.293 292.581 421.275 295.922 451.277Z" fill="white"/>
<path d="M133 425.5C137.447 383.248 146.985 365.035 167.5 345C175.379 354.493 178.601 360.759 183 373C164.369 389.008 151.852 401.923 133 425.5Z" fill="white"/>
<path d="M37 292.922C70.0209 266.19 89.6442 260.056 118.317 260.395C117.176 272.679 115.023 279.388 109.478 291.154C84.9849 289.3 67.0022 289.581 37 292.922Z" fill="white"/>
<path d="M35.7226 192.078C68.7435 218.81 88.3668 224.944 117.04 224.605C115.898 212.321 113.746 205.612 108.201 193.846C83.7074 195.7 65.7247 195.419 35.7226 192.078Z" fill="white"/>
<path d="M134 60C138.447 102.252 147.985 120.465 168.5 140.5C176.379 131.007 179.601 124.741 184 112.5C165.369 96.4916 152.852 83.5772 134 60Z" fill="white"/>
<path d="M295.922 33C269.19 66.0209 263.056 85.6442 263.395 114.317C275.679 113.176 282.388 111.023 294.154 105.478C292.3 80.9849 292.581 63.0022 295.922 33Z" fill="white"/>
<path d="M427.5 130C385.248 134.447 367.035 143.985 347 164.5C356.493 172.379 362.759 175.601 375 180C391.008 161.369 403.923 148.852 427.5 130Z" fill="white"/>
<path d="M455.277 293.922C422.257 267.19 402.633 261.056 373.96 261.395C375.102 273.679 377.254 280.388 382.799 292.154C407.293 290.3 425.275 290.581 455.277 293.922Z" fill="white"/>
<path d="M356 425.5C351.553 383.248 342.015 365.035 321.5 345C313.621 354.493 310.399 360.759 306 373C324.631 389.008 337.148 401.923 356 425.5Z" fill="white"/>
<path d="M194.355 451.277C221.087 418.257 227.221 398.633 226.882 369.96C214.598 371.102 207.889 373.254 196.123 378.799C197.977 403.293 197.696 421.275 194.355 451.277Z" fill="white"/>
<path d="M64 353C106.252 348.553 124.465 339.015 144.5 318.5C135.007 310.621 128.741 307.399 116.5 303C100.492 321.631 87.5772 334.148 64 353Z" fill="white"/>
<path d="M149 10C171.315 15.0414 180.226 21.9801 183.5 47.5C185.23 62.2935 185.725 74.1855 186 100C170.653 87.2478 162.31 79.5485 149 62.5C137.234 40.5882 136.388 28.9918 149 10Z" fill="white"/>
<path d="M342.106 11.4661C354.32 30.81 355.715 42.0177 339.984 62.3778C330.747 74.0617 322.688 82.8207 304.629 101.269C302.795 81.3998 302.339 70.0557 304.983 48.5892C312.157 24.7758 319.758 15.9771 342.106 11.4661Z" fill="white"/>
<path d="M479 147.144C473.959 169.46 467.02 178.371 441.5 181.644C426.707 183.375 414.814 183.87 389 184.144C401.752 168.798 409.452 160.454 426.5 147.144C448.412 135.379 460.008 134.532 479 147.144Z" fill="white"/>
<path d="M476.803 338.106C457.459 350.32 446.251 351.715 425.891 335.984C414.207 326.747 405.448 318.688 387 300.629C406.869 298.795 418.213 298.339 439.679 300.983C463.493 308.157 472.292 315.758 476.803 338.106Z" fill="white"/>
<path d="M341 475C318.685 469.959 309.774 463.02 306.5 437.5C304.77 422.707 304.275 410.814 304 385C319.347 397.752 327.69 405.452 341 422.5C352.766 444.412 353.612 456.008 341 475Z" fill="white"/>
<path d="M147.163 474.803C134.949 455.459 133.554 444.251 149.284 423.891C158.521 412.207 166.58 403.448 184.64 385C186.474 404.869 186.93 416.213 184.286 437.679C177.112 461.493 169.511 470.292 147.163 474.803Z" fill="white"/>
<path d="M12 338C17.0414 315.685 23.9801 306.774 49.5 303.5C64.2935 301.77 76.1855 301.275 102 301C89.2478 316.347 81.5485 324.69 64.5 338C42.5882 349.766 30.9919 350.612 12 338Z" fill="white"/>
<path d="M15.4661 146.163C34.81 133.949 46.0177 132.554 66.3778 148.284C78.0617 157.521 86.8207 165.58 105.269 183.64C85.3998 185.474 74.0557 185.93 52.5892 183.286C28.7758 176.112 19.9771 168.511 15.4661 146.163Z" fill="white"/>
</svg>
